<?xml version="1.0" encoding="UTF-8"?>
<svg width="468px" height="388px" viewBox="0 0 468 388" version="1.1" xmlns="http://www.w3.org/2000/svg" xmlns:xlink="http://www.w3.org/1999/xlink">
    <!-- Generator: Sketch 64 (93537) - https://sketch.com -->
    <title>Artboard</title>
    <desc>Created with Sketch.</desc>
    <defs>
        <linearGradient x1="0%" y1="50%" x2="100%" y2="50%" id="linearGradient-1">
            <stop stop-color="#5F32FF" offset="0%"></stop>
            <stop stop-color="#966CFF" offset="100%"></stop>
        </linearGradient>
        <linearGradient x1="57.6000154%" y1="100%" x2="57.6000154%" y2="-119.289062%" id="linearGradient-2">
            <stop stop-color="#534FF7" offset="0%"></stop>
            <stop stop-color="#00CBF2" offset="100%"></stop>
        </linearGradient>
        <linearGradient x1="54.4481328%" y1="0%" x2="45.3634782%" y2="97.6041297%" id="linearGradient-3">
            <stop stop-color="#8D9AFF" offset="0%"></stop>
            <stop stop-color="#262CAA" offset="100%"></stop>
        </linearGradient>
        <path d="M20.1016715,0.171260835 C24.7692886,15.5228677 25.7857129,26.5286117 23.1509443,33.1884927 C20.5161758,39.8483737 15.0643393,51.213314 6.79543486,67.2833135 L0.377819989,63.733815 C1.10124596,59.3615785 2.64723442,53.9985509 5.01578539,47.6447321 C8.56861185,38.1140039 11.8718954,35.0192018 12.2884589,32.3689624 C12.7050223,29.718723 9.62243406,24.2131807 6.79543486,18.9729673 C3.96843565,13.732754 1.13345997,13.6234256 0.377819989,12.0820081 C-0.125939996,11.0543964 -0.125939996,8.98765407 0.377819989,5.88178101 L20.1016715,0.171260835 Z" id="path-4"></path>
        <filter x="-25.3%" y="-8.6%" width="150.7%" height="117.3%" filterUnits="objectBoundingBox" id="filter-6">
            <feGaussianBlur stdDeviation="2" in="SourceGraphic"></feGaussianBlur>
        </filter>
        <linearGradient x1="51.7834697%" y1="0%" x2="48.1409961%" y2="97.6041297%" id="linearGradient-7">
            <stop stop-color="#8D9AFF" offset="0%"></stop>
            <stop stop-color="#262CAA" offset="100%"></stop>
        </linearGradient>
        <linearGradient x1="8.52997449%" y1="0%" x2="93.1288249%" y2="100.999999%" id="linearGradient-8">
            <stop stop-color="#3023AE" offset="0%"></stop>
            <stop stop-color="#C86DD7" offset="100%"></stop>
        </linearGradient>
        <linearGradient x1="46.4965398%" y1="0%" x2="53.6435985%" y2="100.999999%" id="linearGradient-9">
            <stop stop-color="#3023AE" offset="0%"></stop>
            <stop stop-color="#C86DD7" offset="100%"></stop>
        </linearGradient>
        <linearGradient x1="50%" y1="0%" x2="50%" y2="100%" id="linearGradient-10">
            <stop stop-color="#FECFEF" offset="0%"></stop>
            <stop stop-color="#FF989C" offset="100%"></stop>
        </linearGradient>
        <linearGradient x1="71.6412742%" y1="-133.714825%" x2="42.3134693%" y2="93.1292801%" id="linearGradient-11">
            <stop stop-color="#DB088A" offset="0%"></stop>
            <stop stop-color="#61045F" offset="100%"></stop>
        </linearGradient>
        <linearGradient x1="50%" y1="0%" x2="50%" y2="100%" id="linearGradient-12">
            <stop stop-color="#FECFEF" offset="0%"></stop>
            <stop stop-color="#FF989C" offset="100%"></stop>
        </linearGradient>
        <linearGradient x1="50%" y1="0%" x2="50%" y2="100%" id="linearGradient-13">
            <stop stop-color="#FECFEF" offset="0%"></stop>
            <stop stop-color="#FF989C" offset="100%"></stop>
        </linearGradient>
        <linearGradient x1="50%" y1="0%" x2="50%" y2="100%" id="linearGradient-14">
            <stop stop-color="#FECFEF" offset="0%"></stop>
            <stop stop-color="#FF989C" offset="100%"></stop>
        </linearGradient>
        <linearGradient x1="0%" y1="50%" x2="100%" y2="50%" id="linearGradient-15">
            <stop stop-color="#4F1FF9" offset="0%"></stop>
            <stop stop-color="#682BFF" offset="100%"></stop>
        </linearGradient>
        <linearGradient x1="0%" y1="50%" x2="100%" y2="50%" id="linearGradient-16">
            <stop stop-color="#4F1FF9" offset="0%"></stop>
            <stop stop-color="#682BFF" offset="100%"></stop>
        </linearGradient>
        <linearGradient x1="0%" y1="50%" x2="100%" y2="50%" id="linearGradient-17">
            <stop stop-color="#4F1FF9" offset="0%"></stop>
            <stop stop-color="#682BFF" offset="100%"></stop>
        </linearGradient>
        <linearGradient x1="55.2344883%" y1="0%" x2="44.5438187%" y2="97.6041297%" id="linearGradient-18">
            <stop stop-color="#8D9AFF" offset="0%"></stop>
            <stop stop-color="#262CAA" offset="100%"></stop>
        </linearGradient>
        <linearGradient x1="54.202024%" y1="0%" x2="45.6200103%" y2="97.6041297%" id="linearGradient-19">
            <stop stop-color="#8D9AFF" offset="0%"></stop>
            <stop stop-color="#262CAA" offset="100%"></stop>
        </linearGradient>
        <linearGradient x1="0%" y1="50%" x2="100%" y2="50%" id="linearGradient-20">
            <stop stop-color="#00F2FE" offset="0%"></stop>
            <stop stop-color="#03EFFE" offset="2.1%"></stop>
            <stop stop-color="#24D2FE" offset="29.3%"></stop>
            <stop stop-color="#3CBDFE" offset="55.4%"></stop>
            <stop stop-color="#4AB0FE" offset="79.6%"></stop>
            <stop stop-color="#4FACFE" offset="100%"></stop>
        </linearGradient>
        <path d="M63.3740074,55.6352452 C65.8223614,50.9558032 60.4958278,46.6859917 61.5395716,38.7099974 C62.5833153,30.7340031 71.420654,27.3784438 72.0977657,19.620053 C72.7748774,11.8616622 67.4054993,10.5303833 61.5395716,6.40506641 C55.6736439,2.27974954 50.8807298,1.40812112 45.3271718,0.793161755 C39.7736138,0.178202391 37.1602827,-0.631968973 34.0201187,0.793161755 C30.8799546,2.21829248 25.8619828,7.23140676 18.7846621,7.9770979 C14.0664484,8.47422532 9.07634808,7.14044118 3.81436126,3.97574548 L-7.531753e-13,7.9770979 C3.77375826,15.2360929 8.81300936,19.117078 15.1177533,19.620053 C21.4224972,20.123028 28.3995404,17.2006697 36.0488829,10.852978 C34.4311897,15.1019122 33.3347001,20.4304137 32.7594141,26.8384824 C31.896485,36.4505854 29.3554327,50.1339785 31.3444057,55.6352452 C33.3333787,61.1365119 40.3854707,61.3866098 45.3271718,61.59943 C50.2688729,61.8122502 60.9256534,60.3146872 63.3740074,55.6352452 Z" id="path-21"></path>
        <filter x="-40.5%" y="-12.3%" width="181.0%" height="124.7%" filterUnits="objectBoundingBox" id="filter-23">
            <feGaussianBlur stdDeviation="2" in="SourceGraphic"></feGaussianBlur>
        </filter>
        <filter x="-40.5%" y="-9.0%" width="181.0%" height="117.9%" filterUnits="objectBoundingBox" id="filter-24">
            <feGaussianBlur stdDeviation="2" in="SourceGraphic"></feGaussianBlur>
        </filter>
        <linearGradient x1="50%" y1="0%" x2="50%" y2="100%" id="linearGradient-25">
            <stop stop-color="#FECFEF" offset="0%"></stop>
            <stop stop-color="#FF989C" offset="100%"></stop>
        </linearGradient>
        <linearGradient x1="50%" y1="0%" x2="50%" y2="100%" id="linearGradient-26">
            <stop stop-color="#FECFEF" offset="0%"></stop>
            <stop stop-color="#FF989C" offset="100%"></stop>
        </linearGradient>
        <linearGradient x1="50%" y1="0%" x2="50%" y2="100%" id="linearGradient-27">
            <stop stop-color="#FECFEF" offset="0%"></stop>
            <stop stop-color="#FF989C" offset="100%"></stop>
        </linearGradient>
        <path d="M14.6677018,11.2519078 L13.2256273,13.8090885 L10.2693745,13.8090885 C8.84299598,13.8090885 7.798522,13.3828917 7.13595251,12.5304982 C6.47338303,11.6781046 5.37456147,9.78079557 3.83948784,6.83857111 C1.27982928,6.33181922 -1.81188398e-13,5.89910098 -1.81188398e-13,5.54041638 C-1.81188398e-13,5.18173178 1.43533408,4.71790854 4.30600225,4.14894667 C4.77420938,3.53539621 4.42052478,3.12164766 3.24494845,2.90770103 C1.2997158,2.55368236 0.301135158,3.22862098 0.711325338,2.20689421 C1.30262396,0.73405146 4.73817102,-0.795982081 8.597992,0.471465891 C11.171206,1.31643121 12.7137511,3.4832289 13.2256273,6.97185898 L14.6677018,11.2519078 Z" id="path-28"></path>
        <linearGradient x1="71.4124307%" y1="0%" x2="27.6807019%" y2="97.6041297%" id="linearGradient-30">
            <stop stop-color="#8D9AFF" offset="0%"></stop>
            <stop stop-color="#262CAA" offset="100%"></stop>
        </linearGradient>
        <path d="M54.0647256,2.4235036 C55.0555394,5.84037586 54.1746658,9.82236951 51.422105,14.3694846 C48.6695442,18.9165996 44.9016982,22.6140957 40.1185671,25.4619728 L22.6886931,33.538455 C24.7243353,36.7978932 25.7421564,39.2376717 25.7421564,40.8577905 C25.7421564,42.4779092 25.4156477,46.25323 24.7626303,52.1837528 L25.7421564,60.8467239 C24.4476226,63.9942598 22.9672324,66.0592289 21.300986,67.0416311 C19.6347395,68.0240334 17.6127482,68.0240334 15.235012,67.0416311 L15.235012,59.0318812 L13.1769682,60.8467239 L7.84365289,62.0034569 L6.12787777,61.3319706 C5.16300184,50.1777487 4.68056388,44.0923884 4.68056388,43.0758897 C4.68056388,40.7679232 0.700947845,32.9619934 0.0476878664,29.2749026 C-0.605572112,25.5878118 5.62128935,16.3052384 8.40543836,14.0359482 C10.2615377,12.523088 15.370113,7.84443862 23.7311641,-7.10542736e-15 C27.0036098,5.63370396 31.0509528,8.18666183 35.8731931,7.65887363 C40.6954335,7.13108542 46.7592776,5.38596208 54.0647256,2.4235036 Z" id="path-31"></path>
        <linearGradient x1="54.4791454%" y1="0%" x2="45.4938884%" y2="95.8678231%" id="linearGradient-33">
            <stop stop-color="#6475FF" offset="0%"></stop>
            <stop stop-color="#181FA2" offset="100%"></stop>
        </linearGradient>
        <linearGradient x1="0%" y1="50%" x2="100%" y2="50%" id="linearGradient-34">
            <stop stop-color="#4F1FF9" offset="0%"></stop>
            <stop stop-color="#682BFF" offset="100%"></stop>
        </linearGradient>
        <linearGradient x1="100%" y1="50%" x2="0%" y2="50%" id="linearGradient-35">
            <stop stop-color="#FE9A8B" offset="0%"></stop>
            <stop stop-color="#FD868C" offset="40.8502073%"></stop>
            <stop stop-color="#F9748F" offset="73.1505102%"></stop>
            <stop stop-color="#F78CA0" offset="100%"></stop>
        </linearGradient>
        <path d="M33.1466986,48.6430929 C28.9342453,43.9886884 26.8280187,40.7110051 26.8280187,38.8100429 C26.8280187,35.9585996 36.1754115,21.9087704 36.6213693,15.2516944 C37.0673272,8.59461847 34.1632505,7.40775843 29.2624902,2.46925281 C25.9953166,-0.82308427 18.895515,-0.82308427 7.96308524,2.46925281 C8.95540444,7.8561103 8.33915462,11.3567022 6.11433578,12.9710285 C2.77710752,15.392518 -0.995853791,19.4193576 0.240171728,23.2162586 C1.47619725,27.0131595 4.9615042,31.0748053 4.9615042,33.2926819 C4.9615042,34.7712663 3.85370465,39.4076716 1.63810557,47.2018978 C4.75967809,52.1432972 9.27070178,54.7489401 15.1711766,55.0188263 C21.0716515,55.2887125 27.0634921,53.1634681 33.1466986,48.6430929 Z" id="path-36"></path>
        <linearGradient x1="100%" y1="50%" x2="0%" y2="50%" id="linearGradient-38">
            <stop stop-color="#E46856" offset="0%"></stop>
            <stop stop-color="#FF5676" offset="100%"></stop>
        </linearGradient>
        <linearGradient x1="50%" y1="0%" x2="50%" y2="100%" id="linearGradient-39">
            <stop stop-color="#FECFEF" offset="0%"></stop>
            <stop stop-color="#FF989C" offset="100%"></stop>
        </linearGradient>
        <path d="M41.3030976,14.9428634 C33.2693593,21.3138183 28.0206829,24.4992958 25.5570683,24.4992958 C21.8616464,24.4992958 12.532134,16.9787936 11.4018297,16.2738329 C10.2715254,15.5688723 8.78366295,14.9428634 8.05136445,14.9428634 C7.31906594,14.9428634 6.54229586,10.4315736 5.03322727,10.4315736 C3.52415868,10.4315736 0.996119143,11.2507883 0.195991141,10.4315736 C-0.604136862,9.61235887 1.24753019,8.14656304 2.12139833,7.45028426 C2.99526646,6.75400547 3.92335932,6.57320478 6.94149649,6.57320478 C9.95963367,6.57320478 10.3945732,9.51785124 12.48878,12.0596565 C13.8849178,13.7541934 18.2410139,15.0057971 25.5570683,15.8144677 L41.3030976,4.27332005 L46.4261595,8.70414851e-14 L47.0762254,5.69725735 L45.6607589,10.4315736 L41.3030976,14.9428634 Z" id="path-40"></path>
        <linearGradient x1="50%" y1="0%" x2="50%" y2="100%" id="linearGradient-42">
            <stop stop-color="#FECFEF" offset="0%"></stop>
            <stop stop-color="#FF989C" offset="100%"></stop>
        </linearGradient>
        <linearGradient x1="50%" y1="0%" x2="50%" y2="100%" id="linearGradient-43">
            <stop stop-color="#FECFEF" offset="0%"></stop>
            <stop stop-color="#FF989C" offset="100%"></stop>
        </linearGradient>
        <linearGradient x1="50%" y1="0%" x2="50%" y2="100%" id="linearGradient-44">
            <stop stop-color="#FECFEF" offset="0%"></stop>
            <stop stop-color="#FF989C" offset="100%"></stop>
        </linearGradient>
        <linearGradient x1="0%" y1="50%" x2="100%" y2="50%" id="linearGradient-45">
            <stop stop-color="#4F1FF9" offset="0%"></stop>
            <stop stop-color="#682BFF" offset="100%"></stop>
        </linearGradient>
        <linearGradient x1="88.9273356%" y1="0%" x2="11.0726644%" y2="100%" id="linearGradient-46">
            <stop stop-color="#3D4E81" offset="0%"></stop>
            <stop stop-color="#5753C9" offset="47.8728925%"></stop>
            <stop stop-color="#6E7FF3" offset="100%"></stop>
        </linearGradient>
        <linearGradient x1="50%" y1="0%" x2="50%" y2="100%" id="linearGradient-47">
            <stop stop-color="#FECFEF" offset="0%"></stop>
            <stop stop-color="#FF989C" offset="100%"></stop>
        </linearGradient>
        <linearGradient x1="53.012476%" y1="0%" x2="46.8599384%" y2="97.6041297%" id="linearGradient-48">
            <stop stop-color="#8D9AFF" offset="0%"></stop>
            <stop stop-color="#262CAA" offset="100%"></stop>
        </linearGradient>
        <linearGradient x1="52.2089228%" y1="0%" x2="47.697524%" y2="97.6041297%" id="linearGradient-49">
            <stop stop-color="#8D9AFF" offset="0%"></stop>
            <stop stop-color="#262CAA" offset="100%"></stop>
        </linearGradient>
        <linearGradient x1="0%" y1="50%" x2="100%" y2="50%" id="linearGradient-50">
            <stop stop-color="#4F1FF9" offset="0%"></stop>
            <stop stop-color="#682BFF" offset="100%"></stop>
        </linearGradient>
        <linearGradient x1="100%" y1="71.7391412%" x2="0%" y2="28.2341054%" id="linearGradient-51">
            <stop stop-color="#F5576C" offset="0%"></stop>
            <stop stop-color="#F093FB" offset="100%"></stop>
        </linearGradient>
        <path d="M35.050668,19.3753395 C42.3204556,25.468666 47.6123873,29.1927776 50.9264629,30.5476744 C54.2405385,31.9025712 58.0577788,31.9025712 62.3781838,30.5476744 C61.7110833,29.0180615 61.4571042,27.9402369 61.6162466,27.3142006 C61.775389,26.6881643 61.9865476,25.8478962 62.2497223,24.7933963 C58.7681713,23.656929 55.3328951,22.2808541 51.9438935,20.6651714 C46.8603911,18.2416474 38.4386984,6.72610738 35.050668,3.9408162 C32.7919811,2.08395541 29.7016528,0.770350009 25.7796833,0 C26.0949962,5.2701822 24.6602295,7.90527331 21.4753832,7.90527331 C18.2905368,7.90527331 15.4287073,5.98265885 12.8898946,2.13742995 C6.7129826,6.4233205 2.81907623,10.0630305 1.20817553,13.0565599 C-0.402725175,16.0500893 -0.402725175,19.6464077 1.20817553,23.8455152 C4.94713659,31.3400869 6.81661713,36.1220973 6.81661713,38.1915463 C6.81661713,40.2609952 6.98669255,45.8118352 7.32684339,54.8440661 L26.8718046,57.3375438 L36.8640352,52.8545942 L35.050668,30.5476744 L35.050668,21.6600959 L35.050668,19.3753395 Z" id="path-52"></path>
        <linearGradient x1="50%" y1="0%" x2="50%" y2="100%" id="linearGradient-54">
            <stop stop-color="#FECFEF" offset="0%"></stop>
            <stop stop-color="#FF989C" offset="100%"></stop>
        </linearGradient>
        <linearGradient x1="5.69749539%" y1="-1.04567927%" x2="17.3178416%" y2="44.2656004%" id="linearGradient-55">
            <stop stop-color="#2D6DC0" offset="0%"></stop>
            <stop stop-color="#143B8C" offset="100%"></stop>
        </linearGradient>
        <linearGradient x1="57.4988905%" y1="39.3355108%" x2="66.0962239%" y2="84.9336643%" id="linearGradient-56">
            <stop stop-color="#174293" stop-opacity="0" offset="0%"></stop>
            <stop stop-color="#051E4B" offset="100%"></stop>
        </linearGradient>
        <path d="M378.178003,240.445519 C377.450717,242.00615 376.80221,242.968116 376.232481,243.331418 C374.588372,244.379823 371.017576,242.883176 370,243.331418 C368.29651,244.081804 367.778772,250.27842 366.611589,250.962427 C365.480434,251.625319 360,243.360409 360,238.532184 C360,233.703959 361.647548,233.826356 366.611589,232.330724 C371.57563,230.835091 377.294192,234.818776 379.236731,236.181627 C380.531756,237.090194 380.178847,238.511492 378.178003,240.445519 Z" id="path-57"></path>
        <linearGradient x1="65.575987%" y1="75.7294004%" x2="34.424013%" y2="24.2389356%" id="linearGradient-58">
            <stop stop-color="#F5576C" offset="0%"></stop>
            <stop stop-color="#F093FB" offset="100%"></stop>
        </linearGradient>
        <linearGradient x1="34.424013%" y1="0%" x2="66.1990259%" y2="100.999999%" id="linearGradient-59">
            <stop stop-color="#C86DD7" offset="0%"></stop>
            <stop stop-color="#3023AE" offset="100%"></stop>
        </linearGradient>
        <linearGradient x1="50%" y1="2.77622768%" x2="50%" y2="97.0882494%" id="linearGradient-60">
            <stop stop-color="#C83FFF" offset="0%"></stop>
            <stop stop-color="#A62BFF" offset="100%"></stop>
        </linearGradient>
        <linearGradient x1="87.112426%" y1="75.7294004%" x2="12.887574%" y2="24.2389356%" id="linearGradient-61">
            <stop stop-color="#F5576C" offset="0%"></stop>
            <stop stop-color="#F093FB" offset="100%"></stop>
        </linearGradient>
        <linearGradient x1="50%" y1="0%" x2="50%" y2="100%" id="linearGradient-62">
            <stop stop-color="#FECFEF" offset="0%"></stop>
            <stop stop-color="#FF989C" offset="100%"></stop>
        </linearGradient>
        <linearGradient x1="5.69749539%" y1="4.18614935%" x2="17.3178416%" y2="44.8533367%" id="linearGradient-63">
            <stop stop-color="#2D6DC0" offset="0%"></stop>
            <stop stop-color="#143B8C" offset="100%"></stop>
        </linearGradient>
        <linearGradient x1="57.4988905%" y1="40.4285471%" x2="66.0962239%" y2="81.3532057%" id="linearGradient-64">
            <stop stop-color="#174293" stop-opacity="0" offset="0%"></stop>
            <stop stop-color="#051E4B" offset="100%"></stop>
        </linearGradient>
        <path d="M105.25035,37 C104.012973,36.7861138 103.356459,36.3524794 103.280806,35.6990969 C103.013946,33.3943286 104.221944,29.6976595 103.280806,28.6057938 C102.567121,27.7778094 101.084689,30.309728 99.313134,30.2896241 C98.1320974,30.2762215 96.182117,29.7149448 93.4631928,28.6057938 C91.1596305,29.3418482 89.7056559,29.1235851 89.1012689,27.9510046 C88.1946886,26.1921337 93.4901006,16.4285964 100.373945,19.645399 C107.230943,22.8496561 111.347787,25.2304437 107.554359,34.2604854 C107.223063,35.0491183 106.45506,35.9622898 105.25035,37 Z" id="path-65"></path>
        <linearGradient x1="50%" y1="2.77622768%" x2="50%" y2="97.0882494%" id="linearGradient-66">
            <stop stop-color="#C83FFF" offset="0%"></stop>
            <stop stop-color="#A62BFF" offset="100%"></stop>
        </linearGradient>
        <linearGradient x1="50%" y1="-10.2449928%" x2="47.4395211%" y2="146.721087%" id="linearGradient-67">
            <stop stop-color="#FF9FA0" offset="0%"></stop>
            <stop stop-color="#FF060A" offset="100%"></stop>
        </linearGradient>
        <linearGradient x1="50%" y1="0%" x2="50%" y2="98.4533056%" id="linearGradient-68">
            <stop stop-color="#19B1FF" offset="0%"></stop>
            <stop stop-color="#55D9FF" offset="100%"></stop>
        </linearGradient>
        <linearGradient x1="50%" y1="100%" x2="50%" y2="0%" id="linearGradient-69">
            <stop stop-color="#00C6FB" offset="0%"></stop>
            <stop stop-color="#005BEA" offset="100%"></stop>
        </linearGradient>
        <linearGradient x1="57.6000154%" y1="100%" x2="57.6000154%" y2="-119.289062%" id="linearGradient-70">
            <stop stop-color="#534FF7" offset="0%"></stop>
            <stop stop-color="#00CBF2" offset="100%"></stop>
        </linearGradient>
        <linearGradient x1="50%" y1="0%" x2="50%" y2="100%" id="linearGradient-71">
            <stop stop-color="#00D3ED" offset="0%"></stop>
            <stop stop-color="#00A7E9" offset="100%"></stop>
        </linearGradient>
        <linearGradient x1="50%" y1="3.061617e-15%" x2="50%" y2="100%" id="linearGradient-72">
            <stop stop-color="#03EFFE" stop-opacity="0" offset="0%"></stop>
            <stop stop-color="#4FACFE" offset="100%"></stop>
        </linearGradient>
        <linearGradient x1="50%" y1="2.77622768%" x2="50%" y2="97.0882494%" id="linearGradient-73">
            <stop stop-color="#C83FFF" offset="0%"></stop>
            <stop stop-color="#A62BFF" offset="100%"></stop>
        </linearGradient>
        <linearGradient x1="50%" y1="0%" x2="50%" y2="98.4533056%" id="linearGradient-74">
            <stop stop-color="#19B1FF" offset="0%"></stop>
            <stop stop-color="#55D9FF" offset="100%"></stop>
        </linearGradient>
        <linearGradient x1="50%" y1="32.7927286%" x2="34.8503452%" y2="77.625632%" id="linearGradient-75">
            <stop stop-color="#FF9FA0" offset="0%"></stop>
            <stop stop-color="#FF060A" offset="100%"></stop>
        </linearGradient>
        <linearGradient x1="50%" y1="2.77622768%" x2="50%" y2="97.0882494%" id="linearGradient-76">
            <stop stop-color="#C83FFF" offset="0%"></stop>
            <stop stop-color="#A62BFF" offset="100%"></stop>
        </linearGradient>
        <linearGradient x1="50%" y1="0%" x2="50%" y2="100%" id="linearGradient-77">
            <stop stop-color="#FECFEF" offset="0%"></stop>
            <stop stop-color="#FF989C" offset="100%"></stop>
        </linearGradient>
        <path d="M49.7123352,1.23355992 C48.4024516,-0.0203341621 46.2412749,-0.760870438 43.463655,1.23355992 C40.6860351,3.22799028 33.3691363,15.1376572 29.1027819,16.8233692 C24.8364276,18.5090811 19.8480511,13.624213 16.5658023,11.8613768 C13.2835536,10.0985406 11.4612124,6.13637374 8.23543612,5.86218348 C5.00965982,5.58799323 1.64294494,6.28488553 1.1065465,6.61178156 C0.748947531,6.82971224 2.21907828,7.13208867 5.51693875,7.51891084 C1.77070643,8.08634912 -0.0676394797,8.58953369 0.00190100926,9.02846454 C0.0714414982,9.46739539 2.04807742,9.83708003 5.93180877,10.1375184 C2.62195281,11.3928836 1.01353205,12.2019532 1.1065465,12.5647272 C1.19956094,12.9275012 3.01542534,12.9275012 6.55413968,12.5647272 C2.9366076,13.7231829 1.80000624,14.5655976 3.1443356,15.091971 C5.16082964,15.8815313 11.3218999,14.187862 13.0085837,15.091971 C14.6952676,15.9960801 27.3633079,26.2013224 30.4583033,25.7058523 C33.5532987,25.2103822 40.2671355,16.724761 43.463655,14.187862 C46.6601745,11.650963 48.0641586,12.657506 49.7123352,9.02846454 C51.3605118,5.39942306 51.0222188,2.487454 49.7123352,1.23355992 Z" id="path-78"></path>
        <linearGradient x1="50%" y1="-10.2449928%" x2="49.5672386%" y2="146.721087%" id="linearGradient-80">
            <stop stop-color="#FF9FA0" offset="0%"></stop>
            <stop stop-color="#FF060A" offset="100%"></stop>
        </linearGradient>
        <linearGradient x1="50%" y1="2.77622768%" x2="50%" y2="97.0882494%" id="linearGradient-81">
            <stop stop-color="#C83FFF" offset="0%"></stop>
            <stop stop-color="#A62BFF" offset="100%"></stop>
        </linearGradient>
        <linearGradient x1="50%" y1="0%" x2="50%" y2="98.4533056%" id="linearGradient-82">
            <stop stop-color="#19B1FF" offset="0%"></stop>
            <stop stop-color="#55D9FF" offset="100%"></stop>
        </linearGradient>
        <linearGradient x1="0%" y1="50%" x2="100%" y2="50%" id="linearGradient-83">
            <stop stop-color="#00F2FE" offset="0%"></stop>
            <stop stop-color="#03EFFE" offset="2.1%"></stop>
            <stop stop-color="#24D2FE" offset="29.3%"></stop>
            <stop stop-color="#3CBDFE" offset="55.4%"></stop>
            <stop stop-color="#4AB0FE" offset="79.6%"></stop>
            <stop stop-color="#4FACFE" offset="100%"></stop>
        </linearGradient>
        <linearGradient x1="0%" y1="50%" x2="100%" y2="50%" id="linearGradient-84">
            <stop stop-color="#00F2FE" offset="0%"></stop>
            <stop stop-color="#03EFFE" offset="2.1%"></stop>
            <stop stop-color="#24D2FE" offset="29.3%"></stop>
            <stop stop-color="#3CBDFE" offset="55.4%"></stop>
            <stop stop-color="#4AB0FE" offset="79.6%"></stop>
            <stop stop-color="#4FACFE" offset="100%"></stop>
        </linearGradient>
    </defs>
    <g id="Artboard" stroke="none" stroke-width="1" fill="none" fill-rule="evenodd">
        <path d="M367.587178,165 C368.348047,165 372.903444,163.379681 374.774176,162.151272 C379.35597,159.142653 381.387576,155.887066 382.066896,155.237135 C383.501923,153.864193 383.104367,152.418991 382.066896,151.551709 C381.029426,150.684427 379.55572,150.960617 377.753483,151.551709 C376.551992,151.945771 372.984624,153.499536 367.051378,156.213005 C366.901333,162.071002 367.079933,165 367.587178,165 Z" id="Path-48-Copy" fill="url(#linearGradient-1)"></path>
        <g id="Group-29-Copy" transform="translate(37.000000, 279.000000)">
            <polygon id="Path-82" fill="#FFFFFF" points="82.2457101 24.5167346 41.6378486 48.1226825 -1.70530246e-14 24.5167346 39.5459158 8.8107294e-14"></polygon>
            <polygon id="Path-83" fill="url(#linearGradient-2)" points="81.9349458 38.884837 41.1228551 61.8659826 -1.42108547e-14 38.4106276 -1.42108547e-14 24.0613413 41.5 47.6848365 81.9349458 24.3163128"></polygon>
            <ellipse id="Oval" fill="#FFFFFF" style="mix-blend-mode: overlay;" transform="translate(77.091913, 34.084837) rotate(-51.000000) translate(-77.091913, -34.084837) " cx="77.0919127" cy="34.0848373" rx="1.5999999" ry="1.19999993"></ellipse>
            <ellipse id="Oval-Copy-72" fill="#FFFFFF" style="mix-blend-mode: overlay;" transform="translate(28.291916, 47.684837) rotate(-125.000000) translate(-28.291916, -47.684837) " cx="28.2919156" cy="47.6848365" rx="1.5999999" ry="1.19999993"></ellipse>
            <ellipse id="Oval-Copy-73" fill="#FFFFFF" style="mix-blend-mode: overlay;" transform="translate(31.491915, 50.084836) rotate(-125.000000) translate(-31.491915, -50.084836) " cx="31.4919154" cy="50.0848364" rx="1.5999999" ry="1.19999993"></ellipse>
            <path d="M35.3418741,53.2799559 C36.2255296,53.2799559 36.941874,52.7426976 36.941874,52.079956 C36.941874,51.4172143 36.2255296,50.8799561 35.3418741,50.8799561 C34.4582185,50.8799561 33.7418742,51.4172143 33.7418742,52.079956 C33.7418742,52.7426976 34.4582185,53.2799559 35.3418741,53.2799559 Z" id="Oval-Copy-74" fill="#FFFFFF" style="mix-blend-mode: overlay;" transform="translate(35.341874, 52.079956) rotate(-125.000000) translate(-35.341874, -52.079956) "></path>
            <ellipse id="Oval-Copy-70" fill="#FFFFFF" style="mix-blend-mode: overlay;" transform="translate(73.091913, 36.484837) rotate(-51.000000) translate(-73.091913, -36.484837) " cx="73.0919129" cy="36.4848372" rx="1.5999999" ry="1.19999993"></ellipse>
            <ellipse id="Oval-Copy-71" fill="#FFFFFF" style="mix-blend-mode: overlay;" transform="translate(69.091913, 38.884837) rotate(-51.000000) translate(-69.091913, -38.884837) " cx="69.0919132" cy="38.884837" rx="1.5999999" ry="1.19999993"></ellipse>
            <polygon id="Path-84" stroke="#E4E4E4" stroke-width="0.799999952" points="10.5434117 37.1848963 10.5434117 38.9844035 5.49477966 36.0870319 5.49477966 34.3029689"></polygon>
            <polygon id="Path-85" fill="#FFFFFF" style="mix-blend-mode: overlay;" points="51.8715843 50.0848364 47.12518 52.5383902 47.12518 50.6025324 51.8715843 48.0859015"></polygon>
        </g>
        <g id="Path-53-Copy" transform="translate(371.000000, 87.000000)">
            <mask id="mask-5" fill="white">
                <use xlink:href="#path-4"></use>
            </mask>
            <use id="Mask" fill="url(#linearGradient-3)" xlink:href="#path-4"></use>
            <polygon id="Path-53" fill="#5664E6" filter="url(#filter-6)" mask="url(#mask-5)" points="14.0484716 2.32172212 21.9515004 20.9264428 17.6642383 37.6231415 3.17899049 67.2833135 16.9575109 67.4013118 26.8509841 20.9264428 26.8509841 2.32172212 24.5769178 -2"></polygon>
        </g>
        <path d="M375.816561,123.834649 L378,105.875285 L373.747515,96.3434992 L362.209465,87 C361.930178,90.9785871 361.930178,94.0930868 362.209465,96.3434992 C362.431458,98.1322557 363.866697,100.4103 363.866697,102.283447 C363.866697,104.156594 366.752891,118.013944 366.752891,121.843589 C366.752891,125.673234 363.292999,129.436671 363.292999,138.182824 C363.292999,144.013593 364.446297,149.952652 366.752891,156 L371.158113,152.929212 L375.816561,123.834649 Z" id="Path-39-Copy" fill="url(#linearGradient-7)"></path>
        <path d="M391.246487,86.8141929 C382.686041,93.1106372 376.405822,96.1701413 372.40583,95.9927053 C368.405838,95.8152692 364.890417,92.3212393 361.859566,85.5106156 C364.807343,80.0547241 366.45375,75.7372988 366.798788,72.5583397 C367.143827,69.3793806 365.22868,62.4047787 361.053349,51.634534 C357.642823,45.1180469 358.480852,41.3689332 363.567435,40.3871927 C371.197309,38.9145819 376.156988,41.8598034 380.545031,45.5541458 C383.470393,48.0170407 389.258699,53.5381153 397.909949,62.1173696 L404.457135,48.1678827 L410,48.1678827 C406.113212,64.187303 403.41291,72.7797406 401.899096,73.9451956 C400.385282,75.1106506 396.085909,73.1043585 389.000978,67.9263193 C387.666086,71.078794 387.147671,73.9085912 387.445733,76.4157112 C387.743795,78.9228311 389.010713,82.3889917 391.246487,86.8141929 Z" id="Path-40-Copy" fill="url(#linearGradient-8)"></path>
        <path d="M364.526059,60.1019834 C363.27869,61.8094863 362.655006,63.6476389 362.655006,65.6164414 C362.655006,67.5852439 363.436671,70.7859084 365,75.2184348 L362.655006,78.5116473 L361.372535,80 C358.711907,77.3926801 357.112255,74.8854832 356.573579,72.4784093 C355.765564,68.8677985 355.992372,65.2495142 356.175545,60.4781057 C356.358719,55.7066972 357.185124,53.4993385 357.909696,49.818405 C358.392744,47.3644494 359.040741,46.0916477 359.853687,46 L364.526059,60.1019834 Z" id="Path-41-Copy" fill="url(#linearGradient-9)"></path>
        <path d="M378.595462,41.4801837 C380.485464,42.4967006 381.827922,42.8843537 382.622836,42.6431431 C383.815208,42.2813271 384.819858,41.5138504 385.212378,38.754423 C385.604899,35.9949956 385.021334,34.3917935 384.226488,32.7192115 C383.69659,31.6041569 382.653707,29.5809494 381.09784,26.6495889 L377.742045,34.054736 L377.299379,40.5418324 L378.595462,41.4801837 Z" id="Path-42-Copy" fill="url(#linearGradient-10)" transform="translate(381.318618, 34.681061) rotate(25.000000) translate(-381.318618, -34.681061) "></path>
        <path d="M377.704475,34.1396224 C379.829299,43.2797295 380.712917,48.9634062 380.355329,51.1906525 C380.048323,53.1028426 376.474787,55.5838736 372.630008,55.9636708 C369.757408,56.2474337 366.579267,54.7974018 365.333612,54.0979205 C362.420734,52.4622311 360.96665,52.4622311 360.125494,48.4868593 C359.284338,44.5114874 362.896222,45.0097771 364.28221,39.1178141 C365.668198,33.2258511 364.059125,31.2826037 365.333612,26.346669 C366.6081,21.4107343 368.204348,19.304639 372.630008,18.2340033 C377.055667,17.1633677 381.390028,20.0078318 383.195014,21.8849752 C384.398338,23.1364042 385,26.0472923 385,30.6176396 C382.879788,31.1183617 381.331564,31.5231227 380.355329,31.8319227 C379.379093,32.1407227 378.495476,32.9099559 377.704475,34.1396224 Z" id="Path-43-Copy" fill="url(#linearGradient-11)"></path>
        <path d="M410.337678,48 C410.849122,43.8658634 411.064364,41.3322017 410.983404,40.3990148 C410.861963,38.9992345 410.127559,39.0210168 409.507952,38.5436577 C408.888346,38.0662986 408.203509,38.0944568 407.508884,37.4841686 C407.045801,37.0773098 406.84645,36.5985317 406.910831,36.0478343 C407.210078,32.6682904 407.027324,31.4049368 406.36257,32.2577736 C405.697816,33.1106104 404.917388,35.6096653 404.021284,39.7549382 C403.146788,38.293815 402.551864,37.8157824 402.236513,38.3208404 C401.921162,38.8258983 401.921162,40.256745 402.236513,42.6133804 L404.021284,44.3711992 L404.761352,48 L410.337678,48 Z" id="Path-44-Copy" fill="url(#linearGradient-12)"></path>
        <polygon id="Path-45-Copy" fill="url(#linearGradient-13)" points="365.827059 75 367 76.9157911 363.470522 84 362 79.5"></polygon>
        <polygon id="Path-46-Copy" fill="url(#linearGradient-14)" points="378 153.882002 376.839409 158 373.373061 158 372 150"></polygon>
        <path d="M378.969125,159.869652 C381.026724,159.755118 382.38436,160.077893 383.042035,160.837979 C384.028546,161.978107 384.389055,162.226949 383.467668,164.369755 C382.54628,166.51256 381.584496,166.903597 378.969125,166.999085 C376.353754,167.094572 369.84184,159.688476 368.560494,158.499923 C367.279148,157.311371 366.254109,155.133089 367.7185,153.69947 C368.694761,152.743724 369.880162,151.510568 371.274705,150 C372.083659,152.613819 372.71975,154.214469 373.182977,154.801949 C373.877818,155.683169 374.489759,155.754315 375.184897,155.215118 C375.648323,154.855654 376.491276,154.71793 377.713756,154.801949 L378.969125,159.869652 Z" id="Path-47-Copy" fill="url(#linearGradient-15)"></path>
        <path d="M120.63837,157 C121.120543,158.604725 121.120543,160.073223 120.63837,161.405494 C119.91511,163.4039 117.797304,167.608311 115.546617,169.83633 C113.295931,172.064349 111.831071,172.672496 109.395736,172.935378 C106.960401,173.198259 104,172.804861 104,168.974814 C104,166.42145 105.83501,163.676682 109.505029,160.740511 C112.209711,161.752566 114.493716,161.974227 116.357046,161.405494 C118.220375,160.83676 119.647483,159.368262 120.63837,157 Z" id="Path-49-Copy" fill="url(#linearGradient-16)"></path>
        <path d="M99,144 L99,146.919995 C99,147.949941 98.2178141,148.811481 97.1926575,148.910694 L94.4987977,149.171403 L94.4987977,149.171403 C89.6957853,153.290757 86.4973477,155.685798 84.9034849,156.356526 C82.5126907,157.362619 79.7598153,157.05246 79.06201,156.356526 C78.3642047,155.660592 77.0691077,153.657986 79.06201,150.246943 C80.3906115,147.972914 82.8048081,145.8906 86.3045999,144 C87.6680499,145.245723 89.4875695,145.931999 91.7631586,146.058827 C94.0387477,146.185655 96.4510282,145.499379 99,144 Z" id="Path-50-Copy" fill="url(#linearGradient-17)"></path>
        <path d="M121,157.118387 C120.941976,146.967684 120.277461,139.274336 119.006455,134.038343 C117.099945,126.184353 112.628114,126.184353 111.904682,117.104021 C111.422393,111.050466 110.636568,101.682459 109.547208,89 L92.1391036,91.8830242 C91.6205636,99.0608161 92.5517549,106.36258 94.9326775,113.788316 C98.5040615,124.926919 101.141016,122.373474 104.721193,131.124648 C107.107977,136.958763 108.716649,146.870126 109.547208,160.858735 C112.703916,161.981139 115.09886,162.275652 116.73204,161.742274 C118.36522,161.208897 119.787873,159.667601 121,157.118387 Z" id="Path-51-Copy" fill="url(#linearGradient-18)"></path>
        <path d="M100,143.676631 L98.2205863,116.635828 L92.523412,92.9821611 L80.6402067,87 C78.8562912,91.4616186 78.5275374,95.6048418 79.653945,99.4296694 C81.3435566,105.166911 85.7381424,120.374135 86.764908,124.977846 C87.4494185,128.046987 87.4494185,134.279916 86.764908,143.676631 C89.4440297,145.225544 91.5248535,146 93.0073794,146 C94.4899052,146 96.8207788,145.225544 100,143.676631 Z" id="Path-52-Copy" fill="url(#linearGradient-19)"></path>
        <g id="Path-63-Copy-2" transform="translate(47.000000, 35.000000)">
            <mask id="mask-22" fill="white">
                <use xlink:href="#path-21"></use>
            </mask>
            <use id="Mask" fill="url(#linearGradient-20)" xlink:href="#path-21"></use>
            <path d="M54.9100109,59.4449694 C53.4300508,53.7263354 52.6865171,49.1054885 52.6794097,45.5824287 C52.673825,42.7588842 56.7815484,36.8437584 61.3343334,21.6693014 C62.0862825,19.163051 64.142552,15.5381303 67.503142,10.7945395 L65.8223614,29.5621868 L67.503142,51.8163948 L54.9100109,59.4449694 Z" id="Path-63" fill="#3989FF" opacity="0.547200521" filter="url(#filter-23)" mask="url(#mask-22)"></path>
            <path d="M26.5694915,75.4449694 C25.0895314,67.5694279 24.3459977,61.2057278 24.3388903,56.3538693 C24.3333056,52.4653635 28.441029,44.319219 32.993814,23.4213848 C33.7457631,19.9698473 35.8020326,14.9777089 39.1626226,8.44496939 L37.481842,34.2912439 L39.1626226,64.9391116 L26.5694915,75.4449694 Z" id="Path-63-Copy" fill="#3989FF" opacity="0.547200521" filter="url(#filter-24)" mask="url(#mask-22)"></path>
        </g>
        <path d="M103.995205,42.3252292 C104.582078,40.9030906 104.582078,37.7946808 103.995205,33 C105.580529,34.202548 105.289909,35.4286216 103.123345,36.6782207 C99.8734997,38.5526193 98.0860358,37.4221171 96.5340427,37.5967038 C95.4993806,37.713095 94.9844279,37.3552203 94.9891845,36.5230798 C94.0269861,38.2256027 93.7667491,39.6002657 94.2084734,40.6470687 C94.8710599,42.2172734 97.4928235,43.9460427 98.7627832,43.9460427 C100.032743,43.9460427 103.114896,44.4584373 103.995205,42.3252292 Z" id="Path-54-Copy" fill="url(#linearGradient-25)"></path>
        <path d="M84.4753234,60.4178356 L84.4753234,65.3002397 L76.9160793,64.8017979 C72.5369653,66.6596008 70.1606238,67.339817 69.7870548,66.8424463 C69.4134859,66.3450756 71.1056827,64.7539874 74.8636453,62.0691818 C70.0796603,63.6451536 67.5335255,64.1918869 67.2252409,63.7093819 C66.9169563,63.2268769 68.8887002,61.7811481 73.1404727,59.3721955 C67.8918348,60.4490189 65.1812605,60.7975656 65.0087499,60.4178356 C64.8362392,60.0381055 67.2146203,58.9583359 72.143893,57.1785266 C67.7963175,58.4397478 65.6225297,58.9171867 65.6225297,58.6108435 C65.6225297,58.1513286 69.2124282,55.974573 72.143893,55.4964263 C75.0753579,55.0182795 76.7806084,54.3337705 78.7336615,56.472307 C80.0356969,57.897998 82.1244764,59.2131742 85,60.4178356" id="Path-55-Copy" fill="url(#linearGradient-26)"></path>
        <g id="Path-57-Copy" transform="translate(36.000000, 29.000000)">
            <mask id="mask-29" fill="white">
                <use xlink:href="#path-28"></use>
            </mask>
            <use id="Mask" fill="url(#linearGradient-27)" xlink:href="#path-28"></use>
            <path d="M12.2449599,10.7173942 L9.50889073,6.03748831 L10.728305,4.32455933 L4.03917288,0.41757479 L0,2.70396613 L0,7.57679947 L6.12247995,10.2865457 L7.13595251,12.5304982 C8.49487531,13.9944325 9.49125293,14.6139312 10.1250854,14.3889944 C10.7589178,14.1640575 11.4655426,12.9401908 12.2449599,10.7173942 Z" id="Path-57" fill="#FF9B9B" opacity="0.297154018" mask="url(#mask-29)"></path>
        </g>
        <g id="Path-88-+-Path-92-Mask-Copy" transform="translate(29.000000, 295.000000)">
            <mask id="mask-32" fill="white">
                <use xlink:href="#path-31"></use>
            </mask>
            <use id="Mask" fill="url(#linearGradient-30)" xlink:href="#path-31"></use>
            <path d="M29.7250413,12.511921 L37.1724883,8.66545611 C33.618773,8.38662144 31.3629488,8.05109395 30.4050157,7.65887363 C29.4470827,7.26665331 28.0461148,6.50714032 26.202112,5.38033466 L29.7250413,12.511921 Z" id="Path-92" fill="#6A79FF" mask="url(#mask-32)"></path>
            <path d="M29.4761091,12.7602416 C30.0577609,12.0656175 29.6201027,10.4239237 28.1631346,7.83516001 L22.5561326,0.98230846 C21.0286797,0.14183296 20.3870377,0.384262982 20.6312065,1.70959852 C20.7737001,2.48304689 22.7923557,4.71745508 23.5237662,6.1569033 C24.0456577,7.18400874 25.406125,9.5117648 25.406125,10.0613038 C25.406125,10.6108428 8.97233612,25.8261433 7.6851152,29.2313376 C6.82696792,31.5014671 8.1830418,42.1401679 11.7533368,61.1474398 L13.7157199,61.1474398 C13.2470567,53.4519906 12.8537471,48.6950167 12.5357911,46.8765182 C12.0588571,44.1487704 10.6763404,42.4303391 9.91078111,39.3857017 C9.1452218,36.3410643 8.79945044,34.1508553 8.97233612,32.1497254 C9.1452218,30.1485954 10.3853841,27.6025869 13.7157199,25.0886476 C17.0460558,22.5747083 28.6036314,13.8021777 29.4761091,12.7602416 Z" id="Path-88" fill="url(#linearGradient-33)" mask="url(#mask-32)"></path>
        </g>
        <path d="M55.5436957,356 C56.1521014,358.728095 56.1521014,360.872645 55.5436957,362.433649 C54.6310871,364.775155 51.0785809,371.960281 49.0399628,374.363411 C47.0013446,376.76654 45.1866387,377 43.1869099,377 C41.187181,377 38.5681462,376.979256 39.0604051,374.363411 C39.3885776,372.619514 41.4026819,368.642927 45.1027177,362.433649 L55.5436957,356 Z" id="Path-59-Copy" fill="url(#linearGradient-34)"></path>
        <path d="M35.1705654,356.459039 C33.2754916,359.288857 31.6725773,361.640961 30.3618223,363.515352 C28.3956899,366.326938 26.6058308,370.462427 29.5739645,370.961348 C32.5420981,371.46027 37.2476783,366.998666 39.7926647,365.100607 C41.4893223,363.835234 42.8917674,362.202486 44,360.202363 L43.6681888,355 L41.3935763,356.459039 L37.7374508,357.301321 L35.1705654,356.459039 Z" id="Path-60-Copy" fill="url(#linearGradient-15)"></path>
        <g id="Path-89-Copy" transform="translate(50.000000, 249.000000)">
            <mask id="mask-37" fill="white">
                <use xlink:href="#path-36"></use>
            </mask>
            <use id="Mask" fill="url(#linearGradient-35)" xlink:href="#path-36"></use>
            <path d="M29.0960878,57.7172492 L21.1656997,39.496474 C19.9693492,38.7073409 18.8742048,38.7073409 17.8802663,39.496474 C16.8863279,40.2856071 15.3227639,40.7748834 13.1895743,40.9643027 L7.10131655,36.7480136 L3.74100447,34.3488165 L4.03363957,27.5208173 L17.1483191,33.243774 L21.1656997,32.950225 L32.6264532,20.625765 L34.081973,19.918007 L31.3984449,36.7480136 L31.3984449,42.4741865 L41.0189302,48.5909266 L39.5634104,51.599924 L29.0960878,57.7172492 Z" id="Path-89" fill="url(#linearGradient-38)" opacity="0.675827753" mask="url(#mask-37)"></path>
        </g>
        <g id="Path-91-Copy" transform="translate(12.000000, 252.000000)">
            <mask id="mask-41" fill="white">
                <use xlink:href="#path-40"></use>
            </mask>
            <use id="Mask" fill="url(#linearGradient-39)" xlink:href="#path-40"></use>
            <path d="M49.5156485,4.68942388 L40.5076901,13.0323781 L34.003902,17.0562286 L30.6553859,20.360638 L25.8634417,22.1377262 L17.6206652,18.3781465 L11.7329509,14.5277886 L9.6040352,13.7518191 L9.6040352,12.3757939 C8.98954252,10.2983903 8.23857697,8.96899109 7.35113856,8.38759623 C6.72415802,7.97683728 6.31347826,8.6516547 5.86923881,8.80668533 C5.37030269,8.980804 5.5139826,6.6510559 4.50165704,7.8063528 C4.24150058,8.10325131 3.77040407,7.46590789 3.22671518,7.8063528 C2.7024832,8.13461427 2.11492969,9.43922132 1.36317088,9.80340988 C0.342224747,10.2980059 -0.653548429,10.8937335 -1.62414865,11.5905928 L6.77197732,18.8333167 L15.7256294,25.0964625 L27.4062013,26.0606546 L44.607286,15.3140155 L49.5156485,4.68942388 Z" id="Path-91" fill="#FF8290" opacity="0.472632999" mask="url(#mask-41)"></path>
        </g>
        <path d="M75.8481923,246 C77.5636878,249.049502 78.2534441,251.082318 77.9174611,252.098446 C77.4134866,253.622637 74.7439026,256.77717 72.0912199,258.650007 C69.4385371,260.522844 64,262.531751 64,259.260747 C64,257.049378 66.0621293,254.701489 67.4449329,253.223404 C69.5694277,250.952523 72.3705142,248.544721 75.8481923,246 Z" id="Path-64-Copy" fill="url(#linearGradient-42)"></path>
        <path d="M75.5446166,246.001961 C73.9913595,250.095116 69.8808562,251.824088 68.473161,252.16146 C67.0654658,252.498831 63.7342458,253.411428 62.752441,252.786444 C61.7706362,252.16146 61.1554137,248.148431 61.1554137,246.001961 C61.1554137,243.855492 60.0724105,237.715341 63.624218,235.294297 C67.1760255,232.873253 74.1794037,234.056177 74.1794037,237.124325 C74.1794037,240.192473 77.0978737,241.908806 75.5446166,246.001961 Z" id="Path-65-Copy" fill="url(#linearGradient-43)"></path>
        <path d="M412,279.987242 L415.722745,279.987242 C416.789762,280.083364 417.891519,279.636318 419.028016,278.646104 C420.164514,277.65589 421.011921,276.560223 421.570237,275.359104 C422.636063,273.514413 423.105994,272.395626 422.98003,272.002744 C422.791083,271.413421 421.676947,271.58773 420.495384,272.255 C419.707676,272.699847 419.218553,273.077998 419.028016,273.389453 L422.151389,267 C420.819228,267.128517 419.620419,267.548033 418.554962,268.258548 C416.956776,269.324321 414.875949,272.809215 414.049385,273.638537 C413.498343,274.191418 412.815214,274.590367 412,274.835383 L412,279.987242 Z" id="Path-75-Copy-2" fill="url(#linearGradient-44)"></path>
        <path d="M366.326191,373 C367.170384,375.78477 368.244409,377.994086 369.548266,379.627947 C371.504051,382.07874 373.70992,386.703727 369.967271,387.76344 C366.224621,388.823154 361.679356,386.145624 360.041004,383.250583 C358.94877,381.320555 357.601769,377.903694 356,373 L366.326191,373 Z" id="Path-70-Copy" fill="url(#linearGradient-45)"></path>
        <path d="M85.5989462,260 L78.2444969,251.209184 L74.7831333,242.127333 L67.8893101,242.127333 C58.3712668,239.070331 54.5680094,237.163499 56.4795378,236.406836 C59.3468304,235.271841 60.6012543,230.794149 63.0119997,227.743413 C65.4227451,224.692677 72.0605711,226.573414 73.963915,226.573414 C75.867259,226.573414 75.8319298,226.990017 77.8337421,231.845747 C79.8355543,236.701478 79.2990834,241.475347 79.7518531,244.039123 C80.2046229,246.602898 84.7968387,252.895238 85.5989462,255.08476 C86.1336846,256.544441 86.1336846,258.182855 85.5989462,260 Z" id="Path-66-Copy" fill="url(#linearGradient-46)"></path>
        <path d="M378,254.56424 L373.901352,254.3147 L366.634087,251 C365.989069,251.226596 365.46389,251.437588 365.058551,251.632979 C364.653211,251.828369 364.307547,252.039286 364.021558,252.265729 C363.924345,255.043438 364.15591,256.643417 364.716253,257.065665 C366.430205,258.357218 368.637543,258.656448 369.975763,258.932163 C371.97024,259.343088 374.644985,257.887114 378,254.56424 Z" id="Path-72-Copy" fill="url(#linearGradient-47)"></path>
        <path d="M366.651359,372.904239 C367.0899,361.488546 367.309171,353.719912 367.309171,349.598336 C367.309171,343.415971 372.769996,337.712763 373.214625,336.178686 C373.511045,335.155969 374.772837,325.300366 377,306.61188 L357.939493,303 C357.767375,310.953923 357.767375,316.569414 357.939493,319.846473 C358.160756,324.059238 359.765979,328.41798 359.592085,331.174633 C359.026887,340.13444 355,345.852522 355,349.598336 C355,352.095545 355,359.864179 355,372.904239 C358.346431,374.96808 360.845592,376 362.497485,376 C364.149377,376 365.534002,374.96808 366.651359,372.904239 Z" id="Path-67-Copy" fill="url(#linearGradient-48)"></path>
        <path d="M387.246233,361.319683 C385.962661,362.29393 384.464087,362.840777 382.75051,362.960224 C381.036933,363.079671 378.453351,362.930097 374.999763,362.511501 C374.38662,355.338923 374.080049,350.658404 374.080049,348.469946 C374.080049,346.281487 373.720033,342.155884 373,336.093137 L377.733032,307.098589 L387.594232,301 C388.531411,304.240943 389,307.109342 389,309.605197 C389,313.348979 386.043503,322.92682 385.384898,328.934473 C384.726292,334.942127 385.384898,338.038714 385.384898,342.581347 C385.384898,345.609769 386.005343,351.855881 387.246233,361.319683 Z" id="Path-68-Copy" fill="url(#linearGradient-49)"></path>
        <path d="M396.968768,369.988095 C397.415316,372.220124 392.973634,372.548036 390.028209,371.204669 C387.082783,369.861302 385.059107,368.036062 382.421036,367.644928 C380.662321,367.384173 378.188643,366.953198 375,366.352006 L375,362.798931 L387.434359,362 C393.218399,364.465144 396.396535,367.127842 396.968768,369.988095 Z" id="Path-69-Copy" fill="url(#linearGradient-50)"></path>
        <g id="Path-58-+-Path-61-Mask-Copy" transform="translate(351.000000, 250.000000)">
            <mask id="mask-53" fill="white">
                <use xlink:href="#path-52"></use>
            </mask>
            <use id="Mask" fill="url(#linearGradient-51)" xlink:href="#path-52"></use>
            <path d="M34.3522536,50.732501 C27.2101507,48.5991479 23.2268875,49.9230296 19.0522375,47.3705273 C16.2691375,45.6688592 11.3775914,40.7283789 4.37759907,32.5490866 L5.0896037,56.0850504 L27.3569741,58 L36.8640352,52.8545942 C39.9509161,52.8621008 39.1136556,52.1547364 34.3522536,50.732501 Z" id="Path-8" fill="#FC38A4" opacity="0.454636347" mask="url(#mask-53)"></path>
            <path d="M34.6065453,43.8180251 C28.6030963,41.9549179 24.2410963,40.1655306 21.5205455,38.4498631 C18.7999946,36.7341956 15.9156738,32.9536774 12.8675831,27.1083084 L14.6190726,25.1090172 C16.1042494,24.7573438 16.9130739,24.7573438 17.0455463,25.1090172 C17.2819157,25.7365054 14.8577691,25.5944647 15.037101,26.2443475 C15.9040553,29.3861129 17.1784029,32.2362457 21.5205455,35.1528008 C24.4153072,37.0971709 28.7773071,39.2829235 34.6065453,41.7100587 L34.6065453,43.8180251 Z" id="Path-58" fill="#FC38A4" opacity="0.454636347" mask="url(#mask-53)"></path>
            <path d="M32.8528972,9.17194992 C31.0846089,9.50596427 32.9323758,17.9940729 35.5332526,22.2384814 C38.1341294,26.4828899 36.9561598,25.8872822 44.9595174,28.9289186 C50.2950891,30.9566762 56.1963195,32.1633988 62.6632084,32.5490866 L62.6632084,28.9289186 C58.7734186,29.4805242 56.0515261,29.4805242 54.4975307,28.9289186 C52.1665375,28.1015101 55.2075546,27.5262595 51.5108719,24.9702893 C47.8141893,22.4143191 48.7875162,25.9064249 42.828257,20.8605183 C36.8689979,15.8146116 34.6211856,8.83793556 32.8528972,9.17194992 Z" id="Path-61" fill="#FC38A4" opacity="0.454636347" mask="url(#mask-53)"></path>
        </g>
        <path d="M378.177035,253.477296 C376.595305,255.134755 374.709452,255.145055 372.134319,254.387017 C369.559187,253.628979 366.992997,252.277995 365.079734,249.839608 C363.804226,248.214017 363.220518,245.63346 363.328612,242.097938 L376.42192,237.030663 C377.784713,241.763237 378.588171,244.980917 378.832293,246.683703 C379.198477,249.237882 379.758765,251.819836 378.177035,253.477296 Z" id="Path-73-Copy" fill="url(#linearGradient-54)" transform="translate(371.275758, 245.951142) rotate(16.000000) translate(-371.275758, -245.951142) "></path>
        <g id="Path-74-Copy">
            <use fill="url(#linearGradient-55)" xlink:href="#path-57"></use>
            <use fill="url(#linearGradient-56)" xlink:href="#path-57"></use>
        </g>
        <path d="M385,299.987242 L388.722745,299.987242 C389.789762,300.083364 390.891519,299.636318 392.028016,298.646104 C393.164514,297.65589 394.011921,296.560223 394.570237,295.359104 C395.636063,293.514413 396.105994,292.395626 395.98003,292.002744 C395.791083,291.413421 394.676947,291.58773 393.495384,292.255 C392.707676,292.699847 392.218553,293.077998 392.028016,293.389453 L395.151389,287 C393.819228,287.128517 392.620419,287.548033 391.554962,288.258548 C389.956776,289.324321 387.875949,292.809215 387.049385,293.638537 C386.498343,294.191418 385.815214,294.590367 385,294.835383 L385,299.987242 Z" id="Path-75-Copy-3" fill="url(#linearGradient-44)"></path>
        <polygon id="Path-77-Copy-2" fill="url(#linearGradient-58)" points="434 257.531511 434 285 458 270.462657 458 242"></polygon>
        <polygon id="Path-77-Copy-9" fill="url(#linearGradient-59)" transform="translate(442.000000, 21.500000) scale(-1, 1) translate(-442.000000, -21.500000) " points="430 15.5315109 430 43 454 28.4626568 454 0"></polygon>
        <polygon id="Path-77-Copy-5" fill="url(#linearGradient-60)" transform="translate(12.000000, 284.500000) scale(-1, 1) translate(-12.000000, -284.500000) " points="0 278.531511 0 306 24 291.462657 24 263"></polygon>
        <polygon id="Path-77-Copy-10" fill="url(#linearGradient-61)" points="412 313.953471 412 347 468 314.5 468 282"></polygon>
        <path d="M421,318.12477 C421,318.727181 421.488351,319.215531 422.090762,319.215531 C422.27984,319.215531 422.46567,319.166381 422.630024,319.072903 L457.527938,299.224265 C458.437939,298.70669 459,297.740398 459,296.693505 C459,296.144922 458.555285,295.700207 458.006701,295.700207 C457.836961,295.700207 457.670052,295.743705 457.521902,295.82655 L422.636709,315.334294 C421.626076,315.899438 421,316.966855 421,318.12477 Z" id="Path-77-Copy-11" fill="#FFFFFF"></path>
        <path d="M421,325.12477 C421,325.727181 421.488351,326.215531 422.090762,326.215531 C422.27984,326.215531 422.46567,326.166381 422.630024,326.072903 L457.527938,306.224265 C458.437939,305.70669 459,304.740398 459,303.693505 C459,303.144922 458.555285,302.700207 458.006701,302.700207 C457.836961,302.700207 457.670052,302.743705 457.521902,302.82655 L422.636709,322.334294 C421.626076,322.899438 421,323.966855 421,325.12477 Z" id="Path-77-Copy-12" fill="#FFFFFF"></path>
        <path d="M421,333.083462 C421,333.674935 421.479483,334.154418 422.070956,334.154418 C422.269145,334.154418 422.463448,334.099422 422.632238,333.995552 L441.525939,322.368729 C442.441987,321.80501 443,320.806413 443,319.73081 C443,319.18889 442.560687,318.749577 442.018768,318.749577 C441.841294,318.749577 441.667142,318.797711 441.514859,318.888852 L422.644507,330.182692 C421.624431,330.793205 421,331.894647 421,333.083462 Z" id="Path-77-Copy-13" fill="#FFFFFF"></path>
        <polygon id="Path-77-Copy-14" transform="translate(440.000000, 91.500000) scale(-1, 1) translate(-440.000000, -91.500000) " points="412 90.9534709 412 124 468 91.5 468 59"></polygon>
        <path d="M105.898409,25.9411711 C107.363126,29.4927712 107.363126,30.4218294 105.922683,34.4300669 C104.482239,38.4383045 96.1530988,42.9487345 92.949919,41.8253635 C89.7467392,40.7019925 90.0049788,33.9693857 90.0049788,28.8476495 C90.0049788,23.7259133 98.9728732,23.7259133 101.330376,23.2947898 C103.687879,22.8636662 104.433691,22.3895711 105.898409,25.9411711 Z" id="Path-78-Copy" fill="url(#linearGradient-62)"></path>
        <g id="Path-80-Copy">
            <use fill="url(#linearGradient-63)" xlink:href="#path-65"></use>
            <use fill="url(#linearGradient-64)" xlink:href="#path-65"></use>
        </g>
        <g id="Group-24-Copy" transform="translate(175.000000, 42.000000)">
            <ellipse id="Oval" stroke="url(#linearGradient-66)" stroke-width="3.60000014" cx="66.4000026" cy="53.4000021" rx="22.2000009" ry="48.6000019"></ellipse>
            <path d="M66.7775965,-0.133711633 C79.5002806,-0.133711633 88.9775974,24.1170695 88.9775974,53.8662884 C88.9775974,83.6155115 79.5002806,107.866288 66.7775965,107.866288 C56.363643,107.866288 48.044259,91.685056 45.4179986,68.8468245 L45.3192124,67.5153701 L49.3325486,71.0869283 C49.3322277,71.0928515 49.3353061,71.1190243 49.3417838,71.1654467 C52.0876517,90.8434297 59.3032601,104.266293 66.7775965,104.266293 C76.5881311,104.266293 85.3775973,81.7755997 85.3775973,53.8662884 C85.3775973,25.9569814 76.5881311,3.46628851 66.7775965,3.46628851 C62.0233992,3.46628851 56.2888387,10.0977016 53.5863748,18.9411719 L53.4619328,19.3573128 L50.0067194,18.3466194 C53.0509971,7.93928062 59.9431318,-0.133711633 66.7775965,-0.133711633 Z M48.8231896,21.7311238 L52.2768327,22.7471706 C49.6650307,31.6249427 48.1775958,42.6343 48.1775958,53.8662905 C48.1775958,56.726894 48.2687213,59.5571245 48.4485585,62.3373766 L48.4992114,65.5469313 C47.8730933,64.9803104 47.3323573,64.4832443 46.8770036,64.0557332 C46.4216499,63.628222 45.7269925,62.9513015 44.7930316,62.0249716 C44.6494076,58.3993447 44.5775956,55.6797843 44.5775956,53.8662905 C44.5775956,42.3003066 46.1111448,30.9496314 48.8231896,21.7311238 Z" id="Shape" fill="url(#linearGradient-67)" fill-rule="nonzero" transform="translate(66.777597, 53.866288) rotate(51.000000) translate(-66.777597, -53.866288) "></path>
            <path d="M44.4759436,71.9781187 L48.3311015,73.2678727 C51.1967846,92.478024 58.2832811,105.466292 65.5775948,105.466292 C71.9182371,105.466292 78.2546821,95.6831339 81.6590311,80.0193417 C81.72745,79.6957842 81.7787642,79.4531161 81.8129737,79.2913374 C81.8276937,79.2217255 83.0291688,79.2516006 85.417399,79.3809625 L85.1814651,80.7633986 C81.452125,97.9556897 74.2375691,109.066292 65.5775948,109.066292 C55.69245,109.066292 47.6891871,94.5177305 44.6468914,73.3621877 L44.4759436,71.9781187 Z M78.8303013,20.1539605 C75.3833052,10.6128657 70.6128658,4.66628776 65.5775948,4.66628776 C55.7670602,4.66628776 46.9775941,27.1569806 46.9775941,55.0662876 C46.9775941,59.1591952 47.1641539,63.1878496 47.5294503,67.0933542 L47.7212896,69.2955124 C46.9348429,69.0227803 46.3300085,68.8111921 45.9067865,68.6607478 C45.4835645,68.5103036 44.8469962,68.2806059 43.9970819,67.9716549 C43.5840899,62.2974251 43.3775939,57.995636 43.3775939,55.0662876 C43.3775939,25.3170688 52.8549107,1.06628762 65.5775948,1.06628762 C72.3835004,1.06628762 78.275374,8.0280885 82.2698742,19.03684 C81.5513345,19.2495289 81.0111006,19.4146477 80.6491726,19.5321964 C80.2467511,19.6628967 79.6404606,19.8701515 78.8303013,20.1539605 Z M83.3962663,22.4370494 C86.1723459,31.510682 87.7775957,42.8228274 87.7775957,55.0662876 C87.7775957,61.8780713 87.2740758,68.5129783 86.3063663,74.7078971 L86.1267921,75.7897813 C85.2472621,75.7884916 84.5912701,75.7818789 84.1588161,75.7699433 C83.7967376,75.75995 83.2609308,75.7336694 82.5513959,75.6911013 C83.6078811,69.3672142 84.1775955,62.1076016 84.1775955,55.0662876 C84.1775955,43.1861641 82.532901,32.1807901 79.94687,23.5810536 C80.78252,23.282058 81.4111004,23.0626624 81.8326109,22.922867 C82.1776329,22.8084393 82.6988514,22.6465001 83.3962663,22.4370494 Z" id="Shape" fill="url(#linearGradient-68)" fill-rule="nonzero" transform="translate(65.577595, 55.066290) rotate(-50.000000) translate(-65.577595, -55.066290) "></path>
            <circle id="Oval-Copy-65" fill="url(#linearGradient-69)" cx="94.6000037" cy="4.80000019" r="4.80000019"></circle>
            <ellipse id="Oval" stroke="#E4E4E4" stroke-width="1.20000005" cx="65.8000026" cy="199.800008" rx="43.2000017" ry="24.600001"></ellipse>
            <ellipse id="Oval" stroke="#E4E4E4" stroke-width="1.20000005" cx="66.4000026" cy="197.400008" rx="24.600001" ry="16.2000006"></ellipse>
            <path d="M67,256.80001 C103.450798,256.80001 133,239.070486 133,217.200009 C133,212.285745 133,203.905895 133,199.800008 C133,189.87688 89,188.513519 1,195.709925 C1,207.547218 1,214.710579 1,217.200009 C1,239.070486 30.5492077,256.80001 67,256.80001 Z" id="Oval-Copy-69" fill="url(#linearGradient-70)"></path>
            <ellipse id="Oval-Copy-68" fill="#FFFFFF" cx="67.0000026" cy="198.000008" rx="66.0000026" ry="39.6000016"></ellipse>
            <ellipse id="Oval-Copy-68" fill="url(#linearGradient-71)" cx="67.0000026" cy="198.000008" rx="33" ry="20"></ellipse>
            <path d="M109.375007,96.2740685 L109.375007,198.699515 C105.047586,215.718139 90.4484486,224.22745 65.5775948,224.22745 C40.706741,224.22745 26.3764768,216.637277 22.5868021,201.456932 L22.5868021,96.2740685 L109.375007,96.2740685 Z" id="Path-81" fill="url(#linearGradient-72)"></path>
            <circle id="Oval" fill="url(#linearGradient-73)" cx="38.2000015" cy="104.400004" r="4.80000019"></circle>
            <path d="M109.318065,135.722612 C124.243617,143.294583 133.6,154.731632 133.6,166.800007 C133.6,189.083437 103.73905,207.000008 67,207.000008 C30.2609534,207.000008 0.399999976,189.083436 0.399999976,166.800007 C0.399999976,155.358529 8.31833014,144.734417 21.9126905,137.193331 L22.5868021,136.817675 L22.5868021,138.207089 C9.04601039,145.57198 1.60000002,155.721084 1.60000002,166.800007 C1.60000002,188.257531 30.8374611,205.800008 67,205.800008 C103.162542,205.800008 132.4,188.257532 132.4,166.800007 C132.4,155.380663 124.07248,144.716465 109.817725,137.338274 L109.318065,137.082232 L109.318065,135.722612 Z" id="Path" fill="url(#linearGradient-74)" fill-rule="nonzero"></path>
            <path d="M109.444574,120.213162 C124.293997,127.785114 133.6,139.167507 133.6,151.200006 C133.6,173.483436 103.73905,191.400008 67,191.400008 C30.2609534,191.400008 0.399999976,173.483435 0.399999976,151.200006 C0.399999976,139.72516 8.36480875,129.073158 22.0282825,121.529351 L22.5868021,121.227798 L22.5868021,122.567536 C8.97651697,129.934949 1.60000002,140.088531 1.60000002,151.200006 C1.60000002,172.65753 30.8374611,190.200008 67,190.200008 C103.162542,190.200008 132.4,172.657532 132.4,151.200006 C132.4,139.814872 124.122699,129.179682 109.941652,121.80259 L109.444574,121.546575 L109.444574,120.213162 Z" id="Path" fill="url(#linearGradient-75)" fill-rule="nonzero"></path>
            <path d="M109.055745,104.321554 C124.138957,111.892993 133.6,123.457467 133.6,135.600005 C133.6,157.883435 103.73905,175.800007 67,175.800007 C30.2609534,175.800007 0.399999976,157.883434 0.399999976,135.600005 C0.399999976,123.934865 8.03425566,113.315582 22.0939865,105.759038 L22.5868021,105.496762 L22.6081493,106.836702 C22.598983,106.845159 22.5918672,106.850754 22.5868021,106.853485 C8.94098207,114.212091 1.60000002,124.455464 1.60000002,135.600005 C1.60000002,157.05753 30.8374611,174.600007 67,174.600007 C103.162542,174.600007 132.4,157.057531 132.4,135.600005 C132.4,124.108422 123.965943,113.383016 109.555038,106.003006 L109.055745,105.749853 L109.055745,104.321554 Z" id="Path" fill="url(#linearGradient-76)" fill-rule="nonzero"></path>
        </g>
        <g id="Path-90-Copy" transform="translate(36.000000, 260.000000)">
            <mask id="mask-79" fill="white">
                <use xlink:href="#path-78"></use>
            </mask>
            <use id="Mask" fill="url(#linearGradient-77)" xlink:href="#path-78"></use>
            <path d="M27.7971042,26.1814396 L11.3102407,15.2418028 C10.7798445,15.3001208 10.4332515,15.3001208 10.2704615,15.2418028 C9.54703081,14.9826407 9.59214364,14.5219372 10.2704615,14.4477917 C11.6313748,14.2990329 14.411228,14.0807437 15.9936448,14.7298691 C18.7842144,15.8745927 21.2462823,18.9595075 22.8169932,19.6975301 C23.7799174,20.1499749 27.3292061,24.3643093 30.83494,23.5108394 C35.1187406,22.4679494 42.5792621,12.5009655 44.5058676,13.5760768 C44.8571795,13.7721207 40.9913718,17.5975424 32.9084447,25.0523419 L27.7971042,26.1814396 Z" id="Path-90" fill="#FF8290" opacity="0.472632999" mask="url(#mask-79)"></path>
        </g>
        <polygon id="Rectangle-Copy-51" fill="url(#linearGradient-80)" fill-rule="nonzero" transform="translate(419.000000, 69.500000) scale(-1, 1) translate(-419.000000, -69.500000) " points="413 41.9044675 425 34 425 97.8802452 413 105"></polygon>
        <polygon id="Rectangle-Copy-52" fill="url(#linearGradient-81)" transform="translate(440.000000, 89.000000) scale(-1, 1) translate(-440.000000, -89.000000) " points="434 69.8666291 446 62 446 108.914327 434 116"></polygon>
        <polygon id="Rectangle-Copy-53" fill="url(#linearGradient-82)" fill-rule="nonzero" transform="translate(461.000000, 91.000000) scale(-1, 1) translate(-461.000000, -91.000000) " points="455 62.9319975 467 55 467 119.855448 455 127"></polygon>
        <g id="Group-40-Copy-2" transform="translate(35.500000, 106.500000) scale(-1, 1) translate(-35.500000, -106.500000) translate(2.000000, 63.000000)">
            <polygon id="Path-87" fill="url(#linearGradient-83)" points="-5.37170276e-13 38.2195087 -5.37170276e-13 86.4608831 66.1319384 48.0137491 66.1319384 -5.11590739e-14"></polygon>
            <path d="M48.7572989,50.0371795 C54.2249176,50.0371795 58.6572983,42.3812492 58.6572983,32.9371805 C58.6572983,29.9737451 58.3965949,27.6288634 57.6287045,25.1988527 C57.5972346,25.0992655 57.5487854,24.9512493 57.4833568,24.7548039 L48.7813769,32.2611361 L46.7852601,16.1491348 C46.6606692,16.1860268 46.5674538,16.2148199 46.5056139,16.2355139 C41.9440033,17.7620055 38.8572995,24.6119491 38.8572995,32.9371805 C38.8572995,42.3812492 43.2896802,50.0371795 48.7572989,50.0371795 Z" id="Oval" fill="#FFFFFF" transform="translate(48.757299, 33.093157) rotate(32.000000) translate(-48.757299, -33.093157) "></path>
            <path d="M52.2191037,29.6647523 L59.1318317,15.3656309 C61.6306227,16.8930716 63.1512932,18.79605 63.6938432,21.074566 C64.2363932,23.353082 64.2363932,25.8152132 63.6938432,28.4609595 L52.2191037,29.6647523 Z" id="Path-56" fill="#FFFFFF"></path>
            <polygon id="Path-86" fill="#FFFFFF" points="9.88964195 48.0137491 5.74942312 50.2754233 5.74942312 73.5032395 9.88964195 71.0608348"></polygon>
            <polygon id="Path-86-Copy" fill="#FFFFFF" points="16.3177188 53.0595348 12.1775 55.321209 12.1775 69.4336382 16.3177188 66.9912336"></polygon>
            <polygon id="Path-86-Copy-2" fill="#FFFFFF" points="22.3177185 53.4269744 18.1774996 55.6886486 18.1774996 66.9182508 22.3177185 64.4758462"></polygon>
            <polygon id="Path-86-Copy-3" fill="#FFFFFF" points="28.3177181 40.5475681 24.1774993 42.8092423 24.1774993 62.835424 28.3177181 60.3930193"></polygon>
        </g>
        <path d="M110.533939,44 C109.423769,52.0608697 106.883768,57.2493251 102.913936,59.5653662 C99.3434241,61.6484398 93.8841865,61.6674926 86.5362232,59.6225244 C85.4720968,59.3263798 84.369376,59.9489462 84.0732257,61.013071 C84.0246341,61.1876701 84,61.3680639 84,61.5492985 L84,66.8025439 C84.0000162,67.5638968 84.4322937,68.2592149 85.1150611,68.596093 C92.2362853,72.1097119 98.4302134,72.9031806 103.696845,70.976499 C112.00636,67.9366456 117.076573,59.7911416 118.528923,55.785563 C119.981273,51.7799844 117.745727,49.2615122 116.277353,47.0969543 C115.298438,45.6539157 113.383966,44.6215976 110.533939,44 Z" id="Path-62-Copy" fill="url(#linearGradient-84)"></path>
    </g>
</svg>