<?xml version="1.0" encoding="UTF-8"?>
<svg width="87px" height="71px" viewBox="0 0 87 71" version="1.1" xmlns="http://www.w3.org/2000/svg" xmlns:xlink="http://www.w3.org/1999/xlink">
    <!-- Generator: Sketch 63.1 (92452) - https://sketch.com -->
    <title>2.1</title>
    <desc>Created with Sketch.</desc>
    <defs>
        <linearGradient x1="50%" y1="100%" x2="50%" y2="0%" id="linearGradient-1">
            <stop stop-color="#005BEA" offset="0%"></stop>
            <stop stop-color="#00C6FB" offset="100%"></stop>
        </linearGradient>
        <linearGradient x1="50%" y1="100%" x2="50%" y2="0%" id="linearGradient-2">
            <stop stop-color="#005BEA" offset="0%"></stop>
            <stop stop-color="#00C6FB" offset="100%"></stop>
        </linearGradient>
        <filter x="-54.5%" y="-80.0%" width="209.1%" height="260.0%" filterUnits="objectBoundingBox" id="filter-3">
            <feOffset dx="0" dy="2" in="SourceAlpha" result="shadowOffsetOuter1"></feOffset>
            <feGaussianBlur stdDeviation="2" in="shadowOffsetOuter1" result="shadowBlurOuter1"></feGaussianBlur>
            <feColorMatrix values="0 0 0 0 0.0436115673   0 0 0 0 0.291195503   0 0 0 0 0.538779438  0 0 0 0.620219624 0" type="matrix" in="shadowBlurOuter1" result="shadowMatrixOuter1"></feColorMatrix>
            <feMerge>
                <feMergeNode in="shadowMatrixOuter1"></feMergeNode>
                <feMergeNode in="SourceGraphic"></feMergeNode>
            </feMerge>
        </filter>
    </defs>
    <g id="2.1" stroke="none" stroke-width="1" fill="none" fill-rule="evenodd">
        <g id="Group-2-Copy-3">
            <rect id="Rectangle-Copy-28" fill="url(#linearGradient-1)" x="28" y="25" width="59" height="46" rx="3.46499991"></rect>
            <rect id="Rectangle" fill="url(#linearGradient-2)" opacity="0.808826265" x="0" y="0" width="38" height="63" rx="3.46499991"></rect>
            <rect id="Rectangle" fill="#FFFFFF" x="5" y="4" width="10" height="5" rx="2.5"></rect>
            <g id="Group" filter="url(#filter-3)" transform="translate(47.000000, 41.000000)" fill="#FFFFFF" opacity="0.904343378">
                <path d="M0.445888687,2.62906605 C0.998433356,2.08328196 1.86769057,2.05430844 2.4538824,2.53845369 L2.56716885,2.64212323 L6.04141605,6.15940559 C6.58482617,6.70954688 6.6162339,7.57424735 6.13746347,8.16075961 L6.03490755,8.27417725 L2.56066035,11.7484245 C1.97487391,12.3342109 1.02512644,12.3342109 0.439340007,11.7484245 C-0.109834779,11.1992497 -0.144158203,10.3301873 0.336369734,9.74102652 L0.439340007,9.62710411 L2.85900018,7.20625356 L0.432831511,4.75034621 C-0.112952584,4.19780154 -0.141926094,3.32854432 0.342219149,2.7423525 L0.445888687,2.62906605 Z" id="Path-15" fill-rule="nonzero" style="mix-blend-mode: overlay;" transform="translate(3.237124, 7.191999) scale(-1, 1) translate(-3.237124, -7.191999) "></path>
                <path d="M15.4458887,2.62906605 C15.9984334,2.08328196 16.8676906,2.05430844 17.4538824,2.53845369 L17.5671688,2.64212323 L21.0414161,6.15940559 C21.5848262,6.70954688 21.6162339,7.57424735 21.1374635,8.16075961 L21.0349076,8.27417725 L17.5606604,11.7484245 C16.9748739,12.3342109 16.0251264,12.3342109 15.43934,11.7484245 C14.8901652,11.1992497 14.8558418,10.3301873 15.3363697,9.74102652 L15.43934,9.62710411 L17.8590002,7.20625356 L15.4328315,4.75034621 C14.8870474,4.19780154 14.8580739,3.32854432 15.3422191,2.7423525 L15.4458887,2.62906605 Z" id="Path-15-Copy" fill-rule="nonzero" style="mix-blend-mode: overlay;"></path>
                <rect id="Rectangle" style="mix-blend-mode: overlay;" transform="translate(11.000000, 7.500000) rotate(-345.000000) translate(-11.000000, -7.500000) " x="9.50000018" y="1" width="3" height="13" rx="1.5"></rect>
            </g>
        </g>
    </g>
</svg>